<?xml version="1.0" encoding="UTF-8" standalone="no" ?>
<!DOCTYPE svg PUBLIC "-//W3C//DTD SVG 1.1//EN" "http://www.w3.org/Graphics/SVG/1.1/DTD/svg11.dtd">
<svg xmlns="http://www.w3.org/2000/svg" xmlns:xlink="http://www.w3.org/1999/xlink" version="1.1" width="630.0915057373047" height="212.432" xml:space="preserve">
<desc>Created with Fabric.js 1.6.0-rc.1</desc>
<defs></defs>
  <g transform="translate(374.11 103.77) scale(3.51 3.51)">
   <text font-family="Gross" font-size="40" font-weight="normal" style="stroke: none; stroke-width: 1; stroke-dasharray: none; stroke-linecap: butt; stroke-linejoin: miter; stroke-miterlimit: 10; fill: #006699; fill-rule: nonzero; opacity: 1;" ><tspan x="-70.58" y="8.98" style="stroke: none; stroke-width: 0; stroke-dasharray: none; stroke-linecap: butt; stroke-linejoin: miter; stroke-miterlimit: 4; fill: #006699; fill-rule: ; opacity: 1;">M</tspan><tspan x="-31.9" y="8.98" style="stroke: none; stroke-width: 0; stroke-dasharray: none; stroke-linecap: butt; stroke-linejoin: miter; stroke-miterlimit: 4; fill: #006699; fill-rule: ; opacity: 1;">E</tspan><tspan x="-6.78" y="8.98" style="stroke: none; stroke-width: 0; stroke-dasharray: none; stroke-linecap: butt; stroke-linejoin: miter; stroke-miterlimit: 4; fill: #006699; fill-rule: ; opacity: 1;">D</tspan><tspan x="20.22" y="8.98" style="stroke: none; stroke-width: 0; stroke-dasharray: none; stroke-linecap: butt; stroke-linejoin: miter; stroke-miterlimit: 4; fill: #006699; fill-rule: ; opacity: 1;">U</tspan><tspan x="46.7" y="8.98" style="stroke: none; stroke-width: 0; stroke-dasharray: none; stroke-linecap: butt; stroke-linejoin: miter; stroke-miterlimit: 4; fill: #006699; fill-rule: ; opacity: 1;">P</tspan></text>
 </g>
  <g transform="translate(318.71 176.72) scale(1.04 1)">
   <text font-family="ADAMCG PRO" font-size="40" font-weight="normal" style="stroke: none; stroke-width: 1; stroke-dasharray: none; stroke-linecap: butt; stroke-linejoin: miter; stroke-miterlimit: 10; fill: #006699; fill-rule: nonzero; opacity: 1;" ><tspan x="-259.19" y="8.98" style="stroke: none; stroke-width: 0; stroke-dasharray: none; stroke-linecap: butt; stroke-linejoin: miter; stroke-miterlimit: 4; fill: #006699; fill-rule: ; opacity: 1;">O</tspan><tspan x="-225.24" y="8.98" style="stroke: none; stroke-width: 0; stroke-dasharray: none; stroke-linecap: butt; stroke-linejoin: miter; stroke-miterlimit: 4; fill: #006699; fill-rule: ; opacity: 1;">n</tspan><tspan x="-195.73" y="8.98" style="stroke: none; stroke-width: 0; stroke-dasharray: none; stroke-linecap: butt; stroke-linejoin: miter; stroke-miterlimit: 4; fill: #006699; fill-rule: ; opacity: 1;">l</tspan><tspan x="-175.3" y="8.98" style="stroke: none; stroke-width: 0; stroke-dasharray: none; stroke-linecap: butt; stroke-linejoin: miter; stroke-miterlimit: 4; fill: #006699; fill-rule: ; opacity: 1;">i</tspan><tspan x="-164.52" y="8.98" style="stroke: none; stroke-width: 0; stroke-dasharray: none; stroke-linecap: butt; stroke-linejoin: miter; stroke-miterlimit: 4; fill: #006699; fill-rule: ; opacity: 1;">n</tspan><tspan x="-135.01" y="8.98" style="stroke: none; stroke-width: 0; stroke-dasharray: none; stroke-linecap: butt; stroke-linejoin: miter; stroke-miterlimit: 4; fill: #006699; fill-rule: ; opacity: 1;">e</tspan><tspan x="-111.75" y="8.98" style="stroke: none; stroke-width: 0; stroke-dasharray: none; stroke-linecap: butt; stroke-linejoin: miter; stroke-miterlimit: 4; fill: #006699; fill-rule: ; opacity: 1;"> </tspan><tspan x="-99.76" y="8.98" style="stroke: none; stroke-width: 0; stroke-dasharray: none; stroke-linecap: butt; stroke-linejoin: miter; stroke-miterlimit: 4; fill: #006699; fill-rule: ; opacity: 1;">M</tspan><tspan x="-65.65" y="8.98" style="stroke: none; stroke-width: 0; stroke-dasharray: none; stroke-linecap: butt; stroke-linejoin: miter; stroke-miterlimit: 4; fill: #006699; fill-rule: ; opacity: 1;">e</tspan><tspan x="-42.39" y="8.98" style="stroke: none; stroke-width: 0; stroke-dasharray: none; stroke-linecap: butt; stroke-linejoin: miter; stroke-miterlimit: 4; fill: #006699; fill-rule: ; opacity: 1;">d</tspan><tspan x="-15.4" y="8.98" style="stroke: none; stroke-width: 0; stroke-dasharray: none; stroke-linecap: butt; stroke-linejoin: miter; stroke-miterlimit: 4; fill: #006699; fill-rule: ; opacity: 1;">i</tspan><tspan x="-4.62" y="8.98" style="stroke: none; stroke-width: 0; stroke-dasharray: none; stroke-linecap: butt; stroke-linejoin: miter; stroke-miterlimit: 4; fill: #006699; fill-rule: ; opacity: 1;">c</tspan><tspan x="22.45" y="8.98" style="stroke: none; stroke-width: 0; stroke-dasharray: none; stroke-linecap: butt; stroke-linejoin: miter; stroke-miterlimit: 4; fill: #006699; fill-rule: ; opacity: 1;">a</tspan><tspan x="50.24" y="8.98" style="stroke: none; stroke-width: 0; stroke-dasharray: none; stroke-linecap: butt; stroke-linejoin: miter; stroke-miterlimit: 4; fill: #006699; fill-rule: ; opacity: 1;">l</tspan><tspan x="70.67" y="8.98" style="stroke: none; stroke-width: 0; stroke-dasharray: none; stroke-linecap: butt; stroke-linejoin: miter; stroke-miterlimit: 4; fill: #006699; fill-rule: ; opacity: 1;"> </tspan><tspan x="82.67" y="8.98" style="stroke: none; stroke-width: 0; stroke-dasharray: none; stroke-linecap: butt; stroke-linejoin: miter; stroke-miterlimit: 4; fill: #006699; fill-rule: ; opacity: 1;">S</tspan><tspan x="103.78" y="8.98" style="stroke: none; stroke-width: 0; stroke-dasharray: none; stroke-linecap: butt; stroke-linejoin: miter; stroke-miterlimit: 4; fill: #006699; fill-rule: ; opacity: 1;">u</tspan><tspan x="131.42" y="8.98" style="stroke: none; stroke-width: 0; stroke-dasharray: none; stroke-linecap: butt; stroke-linejoin: miter; stroke-miterlimit: 4; fill: #006699; fill-rule: ; opacity: 1;">p</tspan><tspan x="153.84" y="8.98" style="stroke: none; stroke-width: 0; stroke-dasharray: none; stroke-linecap: butt; stroke-linejoin: miter; stroke-miterlimit: 4; fill: #006699; fill-rule: ; opacity: 1;">p</tspan><tspan x="176.26" y="8.98" style="stroke: none; stroke-width: 0; stroke-dasharray: none; stroke-linecap: butt; stroke-linejoin: miter; stroke-miterlimit: 4; fill: #006699; fill-rule: ; opacity: 1;">o</tspan><tspan x="210.21" y="8.98" style="stroke: none; stroke-width: 0; stroke-dasharray: none; stroke-linecap: butt; stroke-linejoin: miter; stroke-miterlimit: 4; fill: #006699; fill-rule: ; opacity: 1;">r</tspan><tspan x="235.83" y="8.98" style="stroke: none; stroke-width: 0; stroke-dasharray: none; stroke-linecap: butt; stroke-linejoin: miter; stroke-miterlimit: 4; fill: #006699; fill-rule: ; opacity: 1;">t</tspan></text>
 </g>
<g style="stroke: none; stroke-width: 1; stroke-dasharray: none; stroke-linecap: butt; stroke-linejoin: miter; stroke-miterlimit: 10; fill: none; fill-rule: nonzero; opacity: 1;" transform="translate(10 31.370000000000005) scale(0.23 0.23)" >
  <circle cx="256" cy="256" r="256" style="stroke: none; stroke-width: 1; stroke-dasharray: none; stroke-linecap: butt; stroke-linejoin: miter; stroke-miterlimit: 10; fill: #006699; fill-rule: nonzero; opacity: 1;" transform="  matrix(1 0 0 1 0 0) "/>
  <circle cx="255.99800000000002" cy="255.99800000000002" r="211.478" style="stroke: none; stroke-width: 1; stroke-dasharray: none; stroke-linecap: butt; stroke-linejoin: miter; stroke-miterlimit: 10; fill: #f2f7f2; fill-rule: nonzero; opacity: 1;" transform="  matrix(1 0 0 1 0 0) "/>
  <path d="M 367.304 111.304 h -11.13 h -33.391 c -6.147 0 -11.13 4.983 -11.13 11.13 v 111.304 h -89.043 V 122.435 c 0 -6.147 -4.983 -11.13 -11.13 -11.13 h -11.13 h -33.391 c -6.147 0 -11.13 4.983 -11.13 11.13 v 278.261 v 11.13 c 0 6.147 4.983 11.13 11.13 11.13 h 44.522 c 6.147 0 11.13 -4.983 11.13 -11.13 V 300.522 h 89.043 v 22.261 v 77.913 v 11.13 c 0 6.147 4.983 11.13 11.13 11.13 h 44.522 c 6.147 0 11.13 -4.983 11.13 -11.13 V 122.435 C 378.435 116.287 373.452 111.304 367.304 111.304 z" style="stroke: none; stroke-width: 1; stroke-dasharray: none; stroke-linecap: butt; stroke-linejoin: miter; stroke-miterlimit: 10; fill: #55687D; fill-rule: nonzero; opacity: 1;" transform=" matrix(1 0 0 1 0 0) " stroke-linecap="round" />
  <path d="M 300.522 111.304 v 111.304 h -89.043 V 111.304 c 0 -6.147 -4.983 -11.13 -11.13 -11.13 h -44.522 c -6.147 0 -11.13 4.983 -11.13 11.13 v 289.391 c 0 6.147 4.983 11.13 11.13 11.13 h 44.522 c 6.147 0 11.13 -4.983 11.13 -11.13 V 289.391 h 89.043 v 111.304 c 0 6.147 4.983 11.13 11.13 11.13 h 44.522 c 6.147 0 11.13 -4.983 11.13 -11.13 V 111.304 c 0 -6.147 -4.983 -11.13 -11.13 -11.13 h -44.522 C 305.505 100.174 300.522 105.157 300.522 111.304 z" style="stroke: none; stroke-width: 1; stroke-dasharray: none; stroke-linecap: butt; stroke-linejoin: miter; stroke-miterlimit: 10; fill: #C1BDAB; fill-rule: nonzero; opacity: 1;" transform=" matrix(1 0 0 1 0 0) " stroke-linecap="round" />
  <path d="M 345.043 400.696 c 6.147 0 11.13 -4.983 11.13 -11.13 V 111.304 c 0 -6.147 -4.983 -11.13 -11.13 -11.13 h -33.391 c -6.147 0 -11.13 4.983 -11.13 11.13 v 111.304 H 200.348 V 111.304 c 0 -6.147 -4.983 -11.13 -11.13 -11.13 h -33.391 c -6.147 0 -11.13 4.983 -11.13 11.13 v 278.261 c 0 6.147 4.983 11.13 11.13 11.13 h 33.391 c 6.147 0 11.13 -4.983 11.13 -11.13 V 289.391 c 0 -6.147 4.983 -11.13 11.13 -11.13 h 89.043 v 111.304 c 0 6.147 4.983 11.13 11.13 11.13 H 345.043 z" style="stroke: none; stroke-width: 1; stroke-dasharray: none; stroke-linecap: butt; stroke-linejoin: miter; stroke-miterlimit: 10; fill: #006699; fill-rule: nonzero; opacity: 1;" transform=" matrix(1 0 0 1 0 0) " stroke-linecap="round" />
  <path d="M 200.348 111.304 c 0 -6.147 -4.983 -11.13 -11.13 -11.13 h -33.391 c -6.147 0 -11.13 4.983 -11.13 11.13 v 278.261 c 0 6.147 4.983 11.13 11.13 11.13 V 111.304 H 200.348 z" style="stroke: none; stroke-width: 1; stroke-dasharray: none; stroke-linecap: butt; stroke-linejoin: miter; stroke-miterlimit: 10; fill: #FEFBE1; fill-rule: nonzero; opacity: 1;" transform=" matrix(1 0 0 1 0 0) " stroke-linecap="round" />
  <path d="M 345.043 100.174 h -33.391 c -6.147 0 -11.13 4.983 -11.13 11.13 v 111.304 H 200.348 c 0 6.147 4.983 11.13 11.13 11.13 h 89.043 c 6.147 0 11.13 -4.983 11.13 -11.13 V 111.304 h 44.522 C 356.174 105.157 351.191 100.174 345.043 100.174 z" style="stroke: none; stroke-width: 1; stroke-dasharray: none; stroke-linecap: butt; stroke-linejoin: miter; stroke-miterlimit: 10; fill: #FEFBE1; fill-rule: nonzero; opacity: 1;" transform=" matrix(1 0 0 1 0 0) " stroke-linecap="round" />
  <path d="M 300.522 278.261 v 33.391 v 77.913 c 0 6.147 4.983 11.13 11.13 11.13 V 289.391 C 311.652 283.244 306.669 278.261 300.522 278.261 L 300.522 278.261 z" style="stroke: none; stroke-width: 1; stroke-dasharray: none; stroke-linecap: butt; stroke-linejoin: miter; stroke-miterlimit: 10; fill: #FEFBE1; fill-rule: nonzero; opacity: 1;" transform=" matrix(1 0 0 1 0 0) " stroke-linecap="round" />
</g>
</svg>